<svg width="500" height="458" viewBox="0 0 500 458" fill="none" xmlns="http://www.w3.org/2000/svg">
<path d="M48.5171 118H412.517" stroke="#926ACD" stroke-width="18" stroke-linecap="round"/>
<path d="M94.5171 22L93.0225 62.3543C93.0189 62.4509 93.0288 62.5461 93.0536 62.6395C94.4216 67.7976 98.3707 75 105.517 75C116.517 75 121.517 73 123.017 62.5L126.01 22.0967C126.015 22.0324 126.014 21.9701 126.005 21.9061C125.457 17.7095 121.428 9.5 109.517 9.5C97.5171 9.5 94.5171 16.8333 94.5171 20.5" stroke="#926ACD" stroke-width="18" stroke-linecap="round"/>
<path d="M339.017 21.5L337.522 61.8543C337.519 61.9509 337.529 62.0461 337.554 62.1395C338.922 67.2976 342.871 74.5 350.017 74.5C361.017 74.5 366.017 72.5 367.517 62L370.51 21.5967C370.515 21.5324 370.514 21.4701 370.505 21.4061C369.957 17.2095 365.928 9 354.017 9C342.017 9 339.017 16.3333 339.017 20" stroke="#926ACD" stroke-width="18" stroke-linecap="round"/>
<path d="M68.5171 266L79.3297 276.342C79.7148 276.711 80.321 276.713 80.7081 276.346L117.017 242" stroke="#926ACD" stroke-width="18" stroke-linecap="round"/>
<path d="M68.5171 337L79.3297 347.342C79.7148 347.711 80.321 347.713 80.7081 347.346L117.017 313" stroke="#926ACD" stroke-width="18" stroke-linecap="round"/>
<path d="M68.5171 195L79.3297 205.342C79.7148 205.711 80.321 205.713 80.7081 205.346L117.017 171" stroke="#926ACD" stroke-width="18" stroke-linecap="round"/>
<path d="M462.517 235C462.85 189.333 463.317 92.3 462.517 69.5C461.717 46.7 444.184 42.6666 435.517 43.5L36.5171 49.5C26.6837 49.6667 7.51708 57.6 9.51708 88C11.5163 118.388 10.3513 282.875 9.51803 361.41C9.51738 361.472 9.51144 361.528 9.49973 361.589C6.87795 375.118 13.2183 402 59.517 402C105.917 402 209.184 402 255.017 402" stroke="#926ACD" stroke-width="18" stroke-linecap="round"/>
<path d="M422.017 297L410.568 314.174C410.263 314.631 410.385 315.249 410.84 315.557L427.017 326.5C405.684 315 368.917 303.3 392.517 348.5C411.536 384.927 391.565 382.883 372.017 374.087M372.017 374.087C367.309 371.969 362.625 369.459 358.517 367L372.017 374.087ZM372.017 374.087L367.017 388.5M318.017 194H353.017M318.017 261H353.017M307.017 399.5L367.017 444.5C373.85 448.5 390.317 452.7 401.517 437.5C412.717 422.3 463.184 359.833 487.017 330.5C491.35 324.667 495.417 309.8 477.017 297C458.662 284.231 428.499 261.445 415.612 251.573C415.546 251.523 415.482 251.485 415.406 251.452C406.864 247.819 387.739 245.492 378.562 264.905C378.533 264.967 378.496 265.028 378.455 265.082L302.017 367C297.461 373.167 292.084 388.3 307.017 399.5Z" stroke="#926ACD" stroke-width="18" stroke-linecap="round"/>
<path d="M422.017 297L410.568 314.174C410.263 314.631 410.385 315.249 410.84 315.557L426.886 326.411C426.973 326.47 427.075 326.574 427.137 326.659C433.154 334.908 363.695 287.378 392.517 348.5C410.044 385.668 391.565 382.883 372.017 374.087M372.017 374.087C367.438 372.027 357.103 364.431 358.381 366.778C358.461 366.925 358.595 367.041 358.743 367.119L372.017 374.087ZM372.017 374.087L367.017 388.5M318.017 194H353.017M318.017 261H353.017M307.017 399.5L367.017 444.5C373.85 448.5 390.317 452.7 401.517 437.5C412.717 422.3 463.184 359.833 487.017 330.5C491.35 324.667 495.417 309.8 477.017 297C458.662 284.231 428.499 261.445 415.612 251.573C415.546 251.523 415.482 251.485 415.406 251.452C406.864 247.819 387.739 245.492 378.562 264.905C378.533 264.967 378.496 265.028 378.455 265.082L302.017 367C297.461 373.167 292.084 388.3 307.017 399.5Z" stroke="#926ACD" stroke-width="18" stroke-linecap="round"/>
<path d="M245.017 262H276.017" stroke="#926ACD" stroke-width="18" stroke-linecap="round"/>
<path d="M169.517 334H200.517" stroke="#926ACD" stroke-width="18" stroke-linecap="round"/>
<path d="M169.517 262H200.517" stroke="#926ACD" stroke-width="18" stroke-linecap="round"/>
<path d="M169.517 194H200.517" stroke="#926ACD" stroke-width="18" stroke-linecap="round"/>
<path d="M245.517 194H276.517" stroke="#926ACD" stroke-width="18" stroke-linecap="round"/>
<path d="M245.517 334H276.517" stroke="#926ACD" stroke-width="18" stroke-linecap="round"/>
</svg>
